<?xml version="1.0" encoding="UTF-8"?>
<svg version="1.1" xmlns="http://www.w3.org/2000/svg" width="512" height="207">
<path d="M0 0 C0.65003625 2.20709983 1.29484745 4.41573892 1.9375 6.625 C2.47697266 8.46964844 2.47697266 8.46964844 3.02734375 10.3515625 C8.39500301 30.48567393 3.88206514 52.78472699 -6.03515625 70.8203125 C-7.84606683 73.75089144 -9.7755074 76.37420695 -12 79 C-16.53746885 77.70358033 -19.80151342 75.96045219 -23.5625 73.125 C-24.47128906 72.44695312 -25.38007813 71.76890625 -26.31640625 71.0703125 C-27.20199219 70.38710937 -28.08757812 69.70390625 -29 69 C-30.30130859 68.00033203 -30.30130859 68.00033203 -31.62890625 66.98046875 C-35.09376319 64.08642844 -37.89174937 61.01392913 -40 57 C-39.9375 53.25 -39.9375 53.25 -39 50 C-38.66222225 48.66778565 -38.3278689 47.33468756 -38 46 C-39.010625 45.22914062 -40.02125 44.45828125 -41.0625 43.6640625 C-42.37525193 42.65136816 -43.6877383 41.6383295 -45 40.625 C-46.00160156 39.86316406 -46.00160156 39.86316406 -47.0234375 39.0859375 C-47.65507812 38.59609375 -48.28671875 38.10625 -48.9375 37.6015625 C-49.52402344 37.15119629 -50.11054688 36.70083008 -50.71484375 36.23681641 C-51.13894531 35.82866699 -51.56304687 35.42051758 -52 35 C-52 34.34 -52 33.68 -52 33 C-42.49521093 33.41057404 -30.63076114 34.68461943 -22 39 C-22 38.34 -22 37.68 -22 37 C-17.38 37 -12.76 37 -8 37 C-9.753125 36.731875 -11.50625 36.46375 -13.3125 36.1875 C-19.33970634 35.19132678 -25.14527618 33.72875703 -31 32 C-31.03738281 30.98679687 -31.07476562 29.97359375 -31.11328125 28.9296875 C-31.17898388 27.57809061 -31.24542971 26.22652971 -31.3125 24.875 C-31.33505859 24.20984375 -31.35761719 23.5446875 -31.38085938 22.859375 C-31.62989877 18.24082629 -32.68400178 14.98624895 -35 11 C-27.21887201 7.79099466 -19.37022109 5.10365819 -11.3125 2.6875 C-10.42723633 2.42114746 -9.54197266 2.15479492 -8.62988281 1.88037109 C-2.26649961 0 -2.26649961 0 0 0 Z M-4 38 C0 39 0 39 0 39 Z " fill="#83F965" transform="translate(185,74)"/>
<path d="M0 0 C0.71285156 0.39832031 1.42570312 0.79664063 2.16015625 1.20703125 C8.44853422 4.71751029 8.44853422 4.71751029 15 7.6875 C17.81882714 8.92073688 18.98586645 9.80276339 21 12 C22.66190151 13.00789938 24.32930529 14.00674427 26 15 C27.57298901 16.06804632 29.13532121 17.15192971 30.6875 18.25 C31.55117188 18.8584375 32.41484375 19.466875 33.3046875 20.09375 C35.1015625 21.36458333 36.8984375 22.63541667 38.6953125 23.90625 C39.55898437 24.5146875 40.42265625 25.123125 41.3125 25.75 C42.48232422 26.57757813 42.48232422 26.57757813 43.67578125 27.421875 C46.0346832 29.07000422 46.0346832 29.07000422 48.79296875 30.578125 C49.52128906 31.04734375 50.24960938 31.5165625 51 32 C51 32.66 51 33.32 51 34 C48.45749979 33.88525534 45.91652662 33.7585303 43.375 33.625 C42.30572266 33.57859375 42.30572266 33.57859375 41.21484375 33.53125 C36.82847392 33.28979845 33.1405166 32.60657269 29 31 C28.86441305 34.04317386 28.76562761 37.08025562 28.6875 40.125 C28.6246582 41.40890625 28.6246582 41.40890625 28.56054688 42.71875 C28.43732459 49.12630881 29.7229854 51.34295987 34 56 C34.078125 58.265625 34.078125 58.265625 33 60 C31.234375 60.984375 31.234375 60.984375 28.75 61.75 C24.69765229 63.07758551 20.71115085 64.47852072 16.73828125 66.03125 C15.8059668 66.39508789 14.87365234 66.75892578 13.91308594 67.13378906 C12.02825295 67.87183774 10.14476001 68.61331876 8.26269531 69.35839844 C6.94350098 69.86935059 6.94350098 69.86935059 5.59765625 70.390625 C4.80883057 70.70032227 4.02000488 71.01001953 3.20727539 71.32910156 C1 72 1 72 -3 72 C-8.84415904 60.03338864 -9.42169449 48.04129249 -9 35 C-2.565 34.505 -2.565 34.505 4 34 C2.96875 33.7525 1.9375 33.505 0.875 33.25 C-2.95444643 32.33093286 -5.7955404 30.23313615 -9 28 C-5.5326087 8.29891304 -5.5326087 8.29891304 0 0 Z " fill="#83FA65" transform="translate(26,63)"/>
<path d="M0 0 C4.29 0 8.58 0 13 0 C16.96 10.23 20.92 20.46 25 31 C25.33 20.77 25.66 10.54 26 0 C29.96 0 33.92 0 38 0 C38 22.11 38 44.22 38 67 C34.7 67 31.4 67 28 67 C24.14607413 59.73259693 21.21776995 52.16392359 18.25 44.5 C16.5175 40.045 14.785 35.59 13 31 C12.67 42.88 12.34 54.76 12 67 C8.04 67 4.08 67 0 67 C0 44.89 0 22.78 0 0 Z " fill="#87FF60" transform="translate(344,69)"/>
<path d="M0 0 C4.74366981 0.29647936 7.4734381 2.65681051 11.03515625 5.52734375 C12.93895729 7.05205387 12.93895729 7.05205387 15.07421875 8.00390625 C18.27461301 9.65928259 19.85204443 12.13605924 22 15 C22 15.66 22 16.32 22 17 C22.66 17 23.32 17 24 17 C27.97140221 21.08487085 27.97140221 21.08487085 28.0625 24 C23.08444214 33.37046186 10.94565504 40.02671625 2 45 C1.01 45.556875 0.02 46.11375 -1 46.6875 C-4.53706439 48.23496567 -8.11574383 49.30534599 -11.828125 50.3515625 C-14.0192159 50.93767376 -14.0192159 50.93767376 -16 52 C-18.04055005 52.07065617 -20.08334257 52.08421976 -22.125 52.0625 C-23.22070312 52.05347656 -24.31640625 52.04445312 -25.4453125 52.03515625 C-26.28835937 52.02355469 -27.13140625 52.01195312 -28 52 C-29.00013174 47.85758584 -29.11516542 43.98519696 -29.09765625 39.73046875 C-29.0962413 39.04946609 -29.09482635 38.36846344 -29.09336853 37.66682434 C-29.08780298 35.50700353 -29.07525703 33.34728911 -29.0625 31.1875 C-29.05748054 29.71679838 -29.05291841 28.24609512 -29.04882812 26.77539062 C-29.03784488 23.1835596 -29.02060422 19.5917902 -29 16 C-27.72753128 15.49424872 -26.45223419 14.99560963 -25.17578125 14.5 C-24.46591064 14.2215625 -23.75604004 13.943125 -23.0246582 13.65625 C-20.24699243 12.75592857 -18.66192348 12.7831207 -16 14 C-14.3125 16.3125 -14.3125 16.3125 -13 19 C-12.33429481 20.33381364 -11.66780311 21.66723549 -11 23 C-11.17402344 21.7315625 -11.17402344 21.7315625 -11.3515625 20.4375 C-12.08082473 11.26963191 -12.08082473 11.26963191 -8.80859375 7.42578125 C-6.27614056 5.47690902 -3.67563762 3.74259476 -1 2 C-0.67 1.34 -0.34 0.68 0 0 Z " fill="#83FA64" transform="translate(139,136)"/>
<path d="M0 0 C24 0 24 0 30 4 C34.71272093 9.03773616 34.22497238 15.31082256 34.15234375 21.85546875 C33.93621806 26.31652465 33.61059629 30.80637192 32 35 C31.29359375 35.639375 30.5871875 36.27875 29.859375 36.9375 C27.68792893 38.85917011 27.68792893 38.85917011 28.125 41.59375 C28.41375 42.5528125 28.7025 43.511875 29 44.5 C29.30550781 45.551875 29.61101562 46.60375 29.92578125 47.6875 C31.30696044 51.94655439 32.71805068 56.19187155 34.23046875 60.40625 C35 63 35 63 35 67 C30.71 67 26.42 67 22 67 C21.52949219 65.27910156 21.05898438 63.55820313 20.57421875 61.78515625 C19.94596912 59.54408666 19.31702708 57.30321109 18.6875 55.0625 C18.2244043 53.35803711 18.2244043 53.35803711 17.75195312 51.61914062 C17.44580078 50.53955078 17.13964844 49.45996094 16.82421875 48.34765625 C16.54666748 47.34742432 16.26911621 46.34719238 15.9831543 45.31665039 C15.65871338 44.55215576 15.33427246 43.78766113 15 43 C14.01 42.67 13.02 42.34 12 42 C12 50.25 12 58.5 12 67 C8.04 67 4.08 67 0 67 C0 44.89 0 22.78 0 0 Z M12 11 C12 17.27 12 23.54 12 30 C18.54987256 30.77065211 18.54987256 30.77065211 20.91796875 28.3125 C22.15465244 25.66947926 22.37013915 23.90856022 22.3125 21 C22.30863281 20.154375 22.30476563 19.30875 22.30078125 18.4375 C21.98117503 15.84744441 21.38908923 14.19898224 20 12 C17.47825081 10.5527864 17.47825081 10.5527864 12 11 Z " fill="#87FF60" transform="translate(464,69)"/>
<path d="M0 0 C2.34532356 0.03702363 4.68907938 0.04101428 7.03466797 0.04052734 C8.54640026 0.05034457 10.05812202 0.06199544 11.56982422 0.07568359 C12.26052002 0.07790924 12.95121582 0.08013489 13.6628418 0.08242798 C17.898152 0.16492303 21.37615484 0.87686622 25.31982422 2.41162109 C24.34576771 14.29511055 20.97721535 23.92073075 15.31982422 34.41162109 C10.3636091 33.91599958 6.61701047 32.96947005 2.31982422 30.41162109 C1.82482422 29.42162109 1.82482422 29.42162109 1.31982422 28.41162109 C-0.00017578 35.01162109 -1.32017578 41.61162109 -2.68017578 48.41162109 C-6.49461056 47.14014284 -7.47342599 45.43916366 -9.93017578 42.28662109 C-12.55722021 38.95393043 -15.04920455 35.99747497 -18.30517578 33.28662109 C-23.51959193 28.3396109 -25.52037842 20.79617169 -27.96777344 14.20703125 C-28.68336672 12.29072481 -28.68336672 12.29072481 -29.94189453 10.14208984 C-30.90573466 7.88293018 -30.34610225 6.7183999 -29.68017578 4.41162109 C-19.6195641 0.84309625 -10.62393308 -0.17357158 0 0 Z " fill="#83FB65" transform="translate(100.68017578125,15.58837890625)"/>
<path d="M0 0 C1.41925781 -0.03673828 1.41925781 -0.03673828 2.8671875 -0.07421875 C7.20967259 -0.09251574 9.90104636 -0.0389483 13.7265625 2.1484375 C17.20710676 6.23055731 16.73991661 9.88333884 16.6875 15.125 C16.67847656 16.29546875 16.66945312 17.4659375 16.66015625 18.671875 C16.64855469 19.56390625 16.63695312 20.4559375 16.625 21.375 C12.665 21.375 8.705 21.375 4.625 21.375 C4.13 16.425 4.13 16.425 3.625 11.375 C0.985 11.375 -1.655 11.375 -4.375 11.375 C-4.69495663 16.49430607 -4.79820331 20.75420374 -1.29296875 24.74609375 C2.31885878 27.61064662 6.10222821 30.04584739 10 32.5 C13.99285405 35.35203861 16.08664399 38.75993196 17.625 43.375 C18.12779261 50.53012557 18.53621832 57.17099853 14.625 63.375 C8.13520135 68.3671528 0.48020055 67.90123146 -7.375 67.375 C-11.1197973 66.56754795 -13.62228771 65.33395899 -16.04296875 62.25 C-17.72046794 58.62935658 -17.70802922 55.46193683 -17.5625 51.5625 C-17.54219727 50.52319336 -17.54219727 50.52319336 -17.52148438 49.46289062 C-17.48638845 47.76658735 -17.43258943 46.07068864 -17.375 44.375 C-13.415 44.375 -9.455 44.375 -5.375 44.375 C-5.14713542 46.94661458 -4.91927083 49.51822917 -4.69140625 52.08984375 C-4.61455024 54.33659732 -4.61455024 54.33659732 -3.375 55.375 C-1.04202567 55.41592937 1.29205225 55.41741723 3.625 55.375 C4.32777269 51.51329957 4.543977 48.21248636 3.625 44.375 C-0.34038579 40.17795937 -5.23278531 37.56739235 -10.23828125 34.78125 C-10.94339844 34.3171875 -11.64851562 33.853125 -12.375 33.375 C-12.375 32.715 -12.375 32.055 -12.375 31.375 C-13.035 31.375 -13.695 31.375 -14.375 31.375 C-18.03829879 23.74312752 -19.18676077 14.57426749 -16.35546875 6.44921875 C-16.03191406 5.76472656 -15.70835937 5.08023438 -15.375 4.375 C-14.715 4.375 -14.055 4.375 -13.375 4.375 C-13.375 3.715 -13.375 3.055 -13.375 2.375 C-9.02889975 -0.52240017 -5.11307569 0.00690956 0 0 Z " fill="#87FF60" transform="translate(230.375,68.625)"/>
<path d="M0 0 C0.66 0 1.32 0 2 0 C1.57915235 10.91301484 0.25907118 21.31558789 -2 32 C4.93 32.495 4.93 32.495 12 33 C12.70809836 35.3266089 13.36639172 37.65267267 14 40 C14.20238281 40.6909375 14.40476563 41.381875 14.61328125 42.09375 C16.69844831 50.37767902 15.72231444 58.58601288 15 67 C-8.16081219 67.33620534 -8.16081219 67.33620534 -17 63 C-19.34834386 62.17300848 -21.71099176 61.40749661 -24.08203125 60.6484375 C-26 60 -26 60 -28 59 C-26.02673134 51.60425323 -23.28587977 44.89952809 -20 38 C-19.34121687 36.57087934 -18.68376559 35.14114429 -18.02734375 33.7109375 C-4.54788158 4.54788158 -4.54788158 4.54788158 0 0 Z " fill="#83F964" transform="translate(92,122)"/>
<path d="M0 0 C26 0 26 0 33 6 C34.25210362 11.0084145 34.22306752 15.67176303 34.25 20.8125 C34.270625 21.78509766 34.29125 22.75769531 34.3125 23.75976562 C34.34430935 29.63256604 33.90812633 33.85118618 31 39 C24.53214324 44.36694497 21.35938568 43 12 43 C12 50.92 12 58.84 12 67 C8.04 67 4.08 67 0 67 C0 44.89 0 22.78 0 0 Z M12 11 C12 17.6 12 24.2 12 31 C14.64 31 17.28 31 20 31 C22.37310654 27.44034019 22.26915041 25.78037776 22.25 21.5625 C22.25515625 20.42941406 22.2603125 19.29632813 22.265625 18.12890625 C22.01398568 15.16474309 21.54596941 13.49686329 20 11 C17.36 11 14.72 11 12 11 Z " fill="#87FF60" transform="translate(254,69)"/>
<path d="M0 0 C1.68359375 1.609375 1.68359375 1.609375 3.4375 3.75 C5.24794363 5.93711311 6.91700119 7.92930307 9.08203125 9.7734375 C11.70013008 12.81277831 12.3945888 16.05369585 13.25 19.875 C13.42273438 20.56980469 13.59546875 21.26460937 13.7734375 21.98046875 C14.73567282 26.03560331 15.36862108 29.80771616 15 34 C11.27186108 37.96866402 5.8975973 40.65223234 1 43 C0.34 43 -0.32 43 -1 43 C-1 46.63 -1 50.26 -1 54 C-6.49663317 51.80134673 -8.71731839 49.43038951 -12.62109375 45.19140625 C-15.24356312 42.77563397 -17.8191752 41.5822773 -21 40 C-23.80859375 37.6953125 -23.80859375 37.6953125 -26.4375 35.125 C-27.32308594 34.28195313 -28.20867188 33.43890625 -29.12109375 32.5703125 C-31 30 -31 30 -31.03125 27.5078125 C-27.0512216 17.82910708 -11.46836499 0 0 0 Z " fill="#83FA64" transform="translate(62,26)"/>
<path d="M0 0 C9.57 0 19.14 0 29 0 C29 3.63 29 7.26 29 11 C23.39 11 17.78 11 12 11 C12 16.61 12 22.22 12 28 C17.28 28 22.56 28 28 28 C28 31.63 28 35.26 28 39 C22.72 39 17.44 39 12 39 C12 44.28 12 49.56 12 55 C17.61 55 23.22 55 29 55 C29 58.96 29 62.92 29 67 C19.43 67 9.86 67 0 67 C0 44.89 0 22.78 0 0 Z " fill="#87FF60" transform="translate(428,69)"/>
<path d="M0 0 C12.54 0 25.08 0 38 0 C38 3.96 38 7.92 38 12 C37 13 37 13 34.49609375 13.09765625 C32.98208984 13.08025391 32.98208984 13.08025391 31.4375 13.0625 C30.42558594 13.05347656 29.41367187 13.04445313 28.37109375 13.03515625 C27.19740234 13.01775391 27.19740234 13.01775391 26 13 C25.9845388 13.99265114 25.9845388 13.99265114 25.96876526 15.00535583 C25.86094051 21.86671313 25.74632391 28.72793266 25.62768555 35.58911133 C25.58425934 38.15288421 25.54259015 40.71668746 25.50268555 43.28051758 C25.44516853 46.95663628 25.38142137 50.63260099 25.31640625 54.30859375 C25.29969376 55.46274277 25.28298126 56.61689178 25.26576233 57.80601501 C25.24581711 58.86703934 25.22587189 59.92806366 25.20532227 61.02124023 C25.18977798 61.96055893 25.1742337 62.89987762 25.15821838 63.86766052 C25 66 25 66 24 67 C20.04 67 16.08 67 12 67 C12 49.18 12 31.36 12 13 C8.37 13 4.74 13 1 13 C0.67 12.67 0.34 12.34 0 12 C0 8.04 0 4.08 0 0 Z " fill="#87FF60" transform="translate(386,69)"/>
<path d="M0 0 C4.29 0 8.58 0 13 0 C13 18.15 13 36.3 13 55 C18.28 55 23.56 55 29 55 C29 58.96 29 62.92 29 67 C19.43 67 9.86 67 0 67 C0 44.89 0 22.78 0 0 Z " fill="#87FF60" transform="translate(292,69)"/>
<path d="M0 0 C-1.26524918 5.34216319 -4.0323075 9.09769726 -7.18359375 13.47265625 C-8.80126037 15.7234741 -10.36717199 17.98701599 -11.875 20.3125 C-12.26429687 20.90675781 -12.65359375 21.50101563 -13.0546875 22.11328125 C-14.13661475 24.01730863 -14.13661475 24.01730863 -14.32617188 26.43383789 C-15.15526336 29.59129462 -16.02329357 30.20181367 -18.7265625 31.9453125 C-19.50435059 32.45980957 -20.28213867 32.97430664 -21.08349609 33.50439453 C-21.92219238 34.03919434 -22.76088867 34.57399414 -23.625 35.125 C-25.36086329 36.26857742 -27.09521923 37.41444589 -28.828125 38.5625 C-29.69759766 39.13484375 -30.56707031 39.7071875 -31.46289062 40.296875 C-35.81145794 43.21600564 -39.99943822 46.34508621 -44.18994141 49.48486328 C-50.78248908 54.39677291 -50.78248908 54.39677291 -54 56 C-54.99 55.67 -55.98 55.34 -57 55 C-56.71801758 54.46632812 -56.43603516 53.93265625 -56.14550781 53.3828125 C-54.84610285 50.92235036 -53.5480446 48.46118007 -52.25 46 C-51.8065625 45.16082031 -51.363125 44.32164062 -50.90625 43.45703125 C-45.81521687 34.06924699 -45.81521687 34.06924699 -41.6875 24.25 C-39.91104386 20.82867706 -38.48214246 19.6617131 -35.01171875 18.01953125 C-32.80234051 16.89982694 -30.82472323 15.53190951 -28.77758789 14.14379883 C-24.49060874 11.38531822 -19.9333634 9.05646492 -15.45703125 6.62304688 C-14.29880859 5.98786133 -14.29880859 5.98786133 -13.1171875 5.33984375 C-12.42222168 4.96206787 -11.72725586 4.58429199 -11.01123047 4.19506836 C-8.92723949 3.01494449 -8.92723949 3.01494449 -6.91455078 1.36547852 C-4.48438476 -0.36774242 -2.91861045 -0.24321754 0 0 Z " fill="#83F964" transform="translate(83,115)"/>
<path d="M0 0 C-0.55333331 3.87333319 -2.2816845 5.30621803 -5 8 C-11.48831216 16.31037243 -16.40181977 25.54818508 -21 35 C-19.02 35 -17.04 35 -15 35 C-15 38 -15 38 -16.20703125 39.54296875 C-22.56708436 44.71137792 -31.61188063 47.06508975 -39.25268555 49.85668945 C-42.46861552 51.03332775 -45.63477756 52.25659947 -48.76953125 53.63671875 C-51.89936258 54.95753028 -54.64096441 55.59036151 -58 56 C-57.39359548 53.00180406 -56.4703372 50.90663754 -54.7421875 48.390625 C-54.28489258 47.72200439 -53.82759766 47.05338379 -53.35644531 46.36450195 C-52.86756836 45.66671631 -52.37869141 44.96893066 -51.875 44.25 C-51.37581055 43.53352295 -50.87662109 42.8170459 -50.36230469 42.07885742 C-44.9625414 34.41115866 -39.81032801 28.25695154 -32 23 C-30.99438216 22.00564958 -29.99514572 21.00483083 -29 20 C-5.58634538 0 -5.58634538 0 0 0 Z " fill="#83F864" transform="translate(182,32)"/>
<path d="M0 0 C3.96 0 7.92 0 12 0 C12 22.11 12 44.22 12 67 C8.04 67 4.08 67 0 67 C0 44.89 0 22.78 0 0 Z " fill="#87FF60" transform="translate(326,69)"/>
<path d="M0 0 C4.50868795 0.43064169 7.86246148 1.70274899 11.8125 3.875 C12.76769531 4.38804688 13.72289062 4.90109375 14.70703125 5.4296875 C17 7 17 7 18 10 C16.84891362 12.5596526 15.6489644 14.89226876 14.25 17.3125 C13.84458984 18.0230957 13.43917969 18.73369141 13.02148438 19.46582031 C9.04233697 26.24969301 4.32172988 32.27462386 -0.66113281 38.33740234 C-3.54596488 41.91977039 -6.21941349 45.66387286 -8.9296875 49.37890625 C-11.11969657 52.15154038 -13.38999852 54.61826598 -16 57 C-16.66 57 -17.32 57 -18 57 C-18.36945957 51.83559769 -17.05541127 47.88770473 -15.125 43.1875 C-12.87272345 37.47916642 -11.18724465 32.03516032 -10 26 C-9.33333333 24.33333333 -8.66666667 22.66666667 -8 21 C-7.71708359 19.62743525 -7.4478217 18.2520288 -7.1875 16.875 C-6.05978701 11.47289102 -3.9877445 3.9877445 0 0 Z " fill="#83F764" transform="translate(132,20)"/>
<path d="M0 0 C-0.54087318 3.78611227 -2.11722332 5.55400767 -5 8 C-5.66 8 -6.32 8 -7 8 C-7 7.34 -7 6.68 -7 6 C-8.32 6.33 -9.64 6.66 -11 7 C-4.18421053 0 -4.18421053 0 0 0 Z " fill="#7EDE60" transform="translate(182,32)"/>
<path d="M0 0 C0.66 0 1.32 0 2 0 C2 2.31 2 4.62 2 7 C1.38125 7.144375 0.7625 7.28875 0.125 7.4375 C-2.03258322 7.93152225 -2.03258322 7.93152225 -4 9 C-3.35494404 5.51669784 -2.01782732 2.90567134 0 0 Z " fill="#85ED66" transform="translate(92,122)"/>
<path d="M0 0 C0.66 0.33 1.32 0.66 2 1 C1.67 2.32 1.34 3.64 1 5 C-4.445 6.485 -4.445 6.485 -10 8 C-10 7.34 -10 6.68 -10 6 C-9.36191406 5.73445313 -8.72382812 5.46890625 -8.06640625 5.1953125 C-7.24011719 4.84210938 -6.41382813 4.48890625 -5.5625 4.125 C-4.73878906 3.77695313 -3.91507813 3.42890625 -3.06640625 3.0703125 C-0.84253285 2.1755063 -0.84253285 2.1755063 0 0 Z " fill="#7EE85E" transform="translate(58,118)"/>
<path d="M0 0 C1.65 1.65 3.3 3.3 5 5 C5.66 4.67 6.32 4.34 7 4 C7 5.65 7 7.3 7 9 C3.26955235 7.75651745 2.20459674 6.19286425 0 3 C0 2.01 0 1.02 0 0 Z " fill="#91FA6E" transform="translate(91,55)"/>
<path d="M0 0 C1.32 0.33 2.64 0.66 4 1 C2.9024777 3.99324263 2.32317108 4.84610901 -0.625 6.25 C-1.40875 6.4975 -2.1925 6.745 -3 7 C-1.125 2.25 -1.125 2.25 0 0 Z " fill="#80E662" transform="translate(164,67)"/>
<path d="M0 0 C1.65 0 3.3 0 5 0 C4.34 1.32 3.68 2.64 3 4 C1.35 4 -0.3 4 -2 4 C-1.34 2.68 -0.68 1.36 0 0 Z " fill="#7DE061" transform="translate(78,115)"/>
<path d="M0 0 C2.31 0 4.62 0 7 0 C6.67 1.32 6.34 2.64 6 4 C4.02 3.34 2.04 2.68 0 2 C0 1.34 0 0.68 0 0 Z " fill="#9DFF76" transform="translate(97,155)"/>
</svg>
